<svg width="38" height="38" viewBox="0 0 38 38" fill="none" xmlns="http://www.w3.org/2000/svg">
<g filter="url(#filter0_d_10_14)">
<path d="M32.975 25.9823L27.9072 20.9145L24.0093 19.3041C25.3072 17.4583 26.0025 15.2564 26 13C26 6.93456 21.0654 2 15 2C8.93456 2 4 6.93456 4 13C4 19.0654 8.93456 24 15 24C17.276 24.0026 19.4962 23.2952 21.3512 21.9764L22.9574 25.8639L28.025 30.9319C28.35 31.257 28.7358 31.5148 29.1605 31.6907C29.5851 31.8666 30.0403 31.9571 30.4999 31.9572C30.9595 31.9572 31.4147 31.8667 31.8393 31.6908C32.264 31.5149 32.6498 31.2571 32.9748 30.9321C33.2999 30.6071 33.5577 30.2213 33.7336 29.7966C33.9095 29.372 34.0001 28.9168 34.0001 28.4572C34.0001 27.9976 33.9096 27.5424 33.7337 27.1178C33.5578 26.6931 33.3 26.3073 32.975 25.9823ZM6 13C6 8.0375 10.0375 4 15 4C19.9625 4 24 8.0375 24 13C24 17.9625 19.9625 22 15 22C10.0375 22 6 17.9625 6 13ZM31.5607 29.5177C31.2792 29.7986 30.8977 29.9564 30.5 29.9564C30.1023 29.9564 29.7208 29.7986 29.4393 29.5177L24.6536 24.732L23.1602 21.1173L26.775 22.6107L31.5608 27.3964C31.8417 27.678 31.9994 28.0594 31.9994 28.4571C31.9993 28.8548 31.8416 29.2362 31.5607 29.5177Z" fill="white"/>
</g>
<defs>
<filter id="filter0_d_10_14" x="0" y="0" width="38" height="37.9572" filterUnits="userSpaceOnUse" color-interpolation-filters="sRGB">
<feFlood flood-opacity="0" result="BackgroundImageFix"/>
<feColorMatrix in="SourceAlpha" type="matrix" values="0 0 0 0 0 0 0 0 0 0 0 0 0 0 0 0 0 0 127 0" result="hardAlpha"/>
<feOffset dy="2"/>
<feGaussianBlur stdDeviation="2"/>
<feComposite in2="hardAlpha" operator="out"/>
<feColorMatrix type="matrix" values="0 0 0 0 0 0 0 0 0 0 0 0 0 0 0 0 0 0 0.25 0"/>
<feBlend mode="normal" in2="BackgroundImageFix" result="effect1_dropShadow_10_14"/>
<feBlend mode="normal" in="SourceGraphic" in2="effect1_dropShadow_10_14" result="shape"/>
</filter>
</defs>
</svg>
